<svg width="162" height="46" viewBox="0 0 162 46" fill="none" xmlns="http://www.w3.org/2000/svg">
<g style="mix-blend-mode:hard-light">
<path d="M38.1811 23.2762C38.1811 26.9146 38.1798 30.5534 38.1853 34.1919C38.1853 34.3723 38.126 34.4609 37.9711 34.5464C37.3925 34.8665 36.8236 35.2039 36.2526 35.538C35.6463 35.8926 35.0425 36.2509 34.437 36.6071C33.3968 37.2196 32.3583 37.8337 31.3164 38.4427C30.6398 38.8386 29.9573 39.2237 29.2802 39.6191C28.5031 40.0732 27.7305 40.5354 26.9537 40.9895C26.2708 41.3887 25.5832 41.779 24.9003 42.1778C24.2233 42.5736 23.5513 42.9771 22.8747 43.3733C22.2864 43.718 21.6939 44.0551 21.1048 44.399C20.4985 44.7531 19.8951 45.1123 19.2883 45.4664C19.1739 45.5332 19.0687 45.589 18.918 45.4987C18.2048 45.0706 17.4811 44.6603 16.7624 44.2407C15.5021 43.5044 14.244 42.766 12.9841 42.0288C11.8918 41.39 10.7986 40.752 9.70623 40.1136C8.70519 39.5289 7.70415 38.9441 6.7031 38.3589C5.61958 37.7252 4.53691 37.0911 3.45381 36.4569C2.33999 35.8045 1.22534 35.1533 0.11405 34.4966C0.0631347 34.4668 0.0332591 34.3915 0.00759125 34.331C-0.00755696 34.2953 0.00464576 34.2472 0.00464576 34.2046C0.00464576 26.9061 0.00548733 19.6079 0.000858711 12.3094C0.000858711 12.1349 0.0517735 12.0493 0.206622 11.9633C0.783516 11.6433 1.34737 11.2986 1.91711 10.9645C2.61855 10.5533 3.31874 10.1401 4.02313 9.73406C4.67913 9.35613 5.34439 8.99437 5.99787 8.61176C6.94716 8.0555 7.88677 7.48222 8.83521 6.92384C9.80344 6.35396 10.7771 5.79303 11.7487 5.22911C12.5331 4.77415 13.3199 4.32344 14.1026 3.86549C15.0443 3.31477 15.9818 2.75724 16.9231 2.20609C17.5698 1.82731 18.2225 1.45789 18.868 1.07698C19.0093 0.993562 19.128 0.987603 19.269 1.07187C19.8 1.39022 20.3348 1.70176 20.8692 2.01457C21.5029 2.38569 22.1366 2.75596 22.7711 3.12538C23.4894 3.54417 24.2085 3.96125 24.9268 4.38004C25.4608 4.69158 25.9931 5.00567 26.5271 5.31721C26.9861 5.58533 27.4469 5.85091 27.9055 6.11989C28.4517 6.44036 28.9958 6.76424 29.5424 7.08429C29.9943 7.34901 30.4483 7.60905 30.9007 7.87292C31.4355 8.18489 31.9699 8.49812 32.5035 8.81264C33.0829 9.15397 33.6593 9.49998 34.2396 9.84003C34.8072 10.1724 35.3774 10.5001 35.9471 10.8295C36.6381 11.2288 37.3282 11.6288 38.0208 12.0255C38.1373 12.0923 38.1861 12.171 38.1857 12.3174C38.1802 15.9703 38.1811 19.6232 38.1811 23.2762ZM24.1825 26.2464C24.1959 26.2013 24.2207 26.1566 24.2207 26.1115C24.2207 24.2257 24.2182 22.3394 24.2161 20.4536C24.2018 20.4106 24.1871 20.368 24.1728 20.3251C24.1248 20.274 24.0848 20.2076 24.0272 20.1735C22.488 19.2709 20.9412 18.3809 19.4108 17.4633C19.1377 17.2995 18.9601 17.3323 18.7165 17.4948C18.3134 17.7642 17.8837 17.9924 17.4651 18.2375C17.0556 18.4771 16.6462 18.7167 16.2364 18.9555C15.8147 19.2011 15.3914 19.4441 14.9711 19.6913C14.674 19.8663 14.3799 20.0463 14.0845 20.2238C14.0475 20.2357 14.0104 20.2476 13.9616 20.2633C13.9801 20.3004 13.997 20.3336 14.0134 20.3663C13.9995 20.3953 13.9852 20.4242 13.9713 20.4527C13.9692 22.3539 13.9667 24.255 13.9671 26.1562C13.9671 26.1966 13.9986 26.237 14.0155 26.2775C14.3008 26.4443 14.5861 26.6099 14.8705 26.778C15.5699 27.1908 16.2679 27.6053 16.9673 28.0182C17.4697 28.3144 17.9713 28.6123 18.4766 28.903C18.6786 29.0192 18.8898 29.1183 19.0969 29.2256C19.8105 28.8106 20.5254 28.3978 21.2378 27.9803C22.2208 27.404 23.2016 26.8244 24.1837 26.246L24.1825 26.2464ZM21.4057 38.7858C21.4558 38.7636 21.5004 38.7492 21.5404 38.7262C22.3201 38.2772 23.101 37.8307 23.8778 37.3762C24.984 36.7293 26.0857 36.0739 27.1919 35.427C28.0688 34.9141 28.9516 34.4119 29.8289 33.8995C30.989 33.2224 32.1449 32.538 33.3059 31.8617C33.4767 31.7621 33.555 31.6489 33.5546 31.434C33.5478 25.9795 33.5491 20.5251 33.5491 15.0702C33.5491 15.0276 33.5617 14.9795 33.5462 14.9438C33.5205 14.8851 33.4885 14.8144 33.438 14.7838C33.0715 14.5599 32.7 14.3446 32.3301 14.1267C31.6484 13.7249 30.968 13.3214 30.2851 12.9222C29.7082 12.5851 29.1275 12.2553 28.551 11.9178C27.7743 11.4633 27.0013 11.0015 26.2241 10.5478C25.5471 10.1524 24.8645 9.76726 24.1879 9.37145C23.3464 8.87946 22.5086 8.38066 21.6687 7.88611C20.8637 7.412 20.0609 6.93405 19.2488 6.47313C19.1562 6.42078 18.9875 6.42717 18.8894 6.47739C18.5751 6.63869 18.2789 6.83617 17.9725 7.01407C17.1886 7.46988 16.4017 7.92016 15.6187 8.37811C14.6828 8.92542 13.7516 9.4804 12.8158 10.0273C11.8623 10.5848 10.9046 11.1343 9.95113 11.6918C9.00942 12.2425 8.07107 12.7992 7.13062 13.3512C6.35722 13.8053 5.5855 14.262 4.80579 14.7042C4.65977 14.7868 4.62653 14.8778 4.62653 15.0336C4.63032 20.5166 4.62948 25.9991 4.62948 31.4821C4.62948 31.5247 4.61938 31.5706 4.632 31.6089C4.6501 31.6625 4.6724 31.7315 4.71448 31.757C5.47147 32.215 6.2293 32.6712 6.99176 33.1194C7.6364 33.4982 8.28777 33.8646 8.93452 34.24C9.85687 34.7749 10.778 35.312 11.6991 35.8496C13.2244 36.7399 14.7485 37.6316 16.2738 38.5215C16.4253 38.61 16.581 38.6917 16.7733 38.7977C16.7733 38.667 16.7733 38.5917 16.7733 38.5164C16.7733 36.665 16.7619 34.8137 16.7821 32.9628C16.7868 32.561 16.7119 32.3227 16.3218 32.1162C15.3809 31.6179 14.4825 31.0373 13.5615 30.4994C12.422 29.8338 11.277 29.1779 10.1438 28.5229V18.0136C10.9829 17.5195 11.8097 17.0314 12.6378 16.5462C13.6321 15.9631 14.6277 15.383 15.6225 14.8008C16.6576 14.1947 17.6935 13.5891 18.7266 12.9797C18.9483 12.8486 19.1255 12.812 19.3843 12.9678C20.8671 13.8615 22.3676 14.7246 23.8622 15.5979C25.2193 16.3908 26.5767 17.1829 27.9304 17.9813C27.9859 18.0141 28.0368 18.1094 28.0368 18.1758C28.0419 21.5661 28.0419 24.9568 28.0368 28.3471C28.0368 28.414 27.9872 28.5101 27.9321 28.5429C26.6499 29.2984 25.3632 30.0466 24.0785 30.7973C23.2378 31.2884 22.3983 31.7826 21.5576 32.2733C21.4621 32.329 21.4011 32.3822 21.4015 32.5154C21.407 34.6009 21.4057 36.6863 21.4057 38.7858Z" fill="white"/>
<path d="M14.0832 20.2238C14.3786 20.0459 14.6727 19.8659 14.9698 19.6914C15.3906 19.4441 15.8135 19.2011 16.2351 18.9555C16.645 18.7168 17.0544 18.4772 17.4638 18.2375C17.8825 17.9924 18.3121 17.7643 18.7152 17.4949C18.9588 17.3323 19.1364 17.2995 19.4095 17.4634C20.9399 18.381 22.4867 19.2709 24.0259 20.1736C24.084 20.2076 24.1235 20.274 24.1715 20.3251C24.1206 20.3468 24.0667 20.3634 24.0192 20.3911C22.8528 21.0716 21.6885 21.756 20.52 22.4327C20.299 22.5603 20.0541 22.6455 19.8345 22.7748C19.5795 22.9247 19.3397 23.1013 19.0931 23.266C18.8806 23.1294 18.6723 22.9851 18.4539 22.8587C18.1644 22.691 17.8682 22.5352 17.5728 22.3778C17.4512 22.3126 17.3245 22.2565 17.2004 22.1965C17.131 22.1407 17.0611 22.0845 16.9917 22.0288C16.9399 22.0126 16.8831 22.0062 16.8377 21.9794C16.3672 21.6994 15.901 21.4112 15.4289 21.1342C14.9854 20.8737 14.536 20.6239 14.0891 20.3694C14.087 20.3208 14.0853 20.2723 14.0832 20.2238Z" fill="#E4E4E4"/>
<path d="M17.2004 22.1965C17.3245 22.2565 17.4512 22.3126 17.5728 22.3778C17.8682 22.5352 18.1644 22.691 18.4539 22.8587C18.6723 22.9851 18.8806 23.1294 19.0931 23.266C19.0939 25.2527 19.0948 27.2394 19.0956 29.226C18.8886 29.1192 18.6769 29.0196 18.4754 28.9034C17.97 28.6128 17.4684 28.3148 16.966 28.0186C16.2667 27.6058 15.5682 27.1913 14.8692 26.7784C14.5848 26.6103 14.2991 26.4448 14.0138 26.2779C14.0109 26.186 14.0058 26.0941 14.0058 26.0026C14.0054 24.2342 14.0058 22.4654 14.0041 20.6971C14.0041 20.6158 13.9818 20.5345 13.97 20.4532C13.9839 20.4243 13.9982 20.3953 14.0121 20.3668C14.0378 20.3677 14.063 20.3689 14.0891 20.3694C14.536 20.6239 14.9854 20.8737 15.4289 21.1342C15.901 21.4112 16.3672 21.6994 16.8377 21.9794C16.8831 22.0062 16.9399 22.0126 16.9917 22.0288C17.0611 22.0845 17.131 22.1407 17.2004 22.1965Z" fill="#BFBFBF"/>
<path d="M19.0956 29.226C19.0948 27.2394 19.0939 25.2527 19.0931 23.266C19.3397 23.1013 19.5795 22.9247 19.8345 22.7748C20.0541 22.6455 20.299 22.5603 20.52 22.4327C21.6885 21.756 22.8528 21.0716 24.0192 20.3911C24.0667 20.3634 24.1206 20.3468 24.1715 20.3251C24.1858 20.3681 24.2018 20.4106 24.2161 20.4536C24.2043 20.514 24.1812 20.5741 24.1812 20.6345C24.1799 22.5054 24.182 24.3755 24.1825 26.2464C23.2008 26.8248 22.2187 27.4049 21.2357 27.9812C20.5233 28.3987 19.8097 28.8111 19.0956 29.226Z" fill="#858585"/>
<path d="M13.97 20.4532C13.9818 20.5345 14.0041 20.6158 14.0041 20.6971C14.0058 22.4654 14.0054 24.2342 14.0058 26.0026C14.0058 26.0941 14.0109 26.186 14.0138 26.2779C13.997 26.2375 13.9654 26.1971 13.9654 26.1566C13.9654 24.2555 13.9679 22.3543 13.97 20.4532Z" fill="#AB6E5C"/>
<path d="M24.1825 26.2464C24.182 24.3755 24.1799 22.5054 24.1812 20.6345C24.1812 20.5741 24.2043 20.514 24.2161 20.4536C24.2182 22.3394 24.2207 24.2257 24.2207 26.1115C24.2207 26.1566 24.1959 26.2013 24.1825 26.2464Z" fill="#96635C"/>
<path d="M14.0891 20.3694C14.063 20.3689 14.0378 20.3677 14.0121 20.3668C13.9957 20.334 13.9789 20.3008 13.9604 20.2638C14.0092 20.2481 14.0462 20.2357 14.0832 20.2238C14.0853 20.2723 14.087 20.3208 14.0891 20.3694Z" fill="#F39736"/>
</g>
<path d="M155.183 7.97729L154.178 9.38024C155.113 9.95734 156.338 10.8329 157.851 12.017C159.383 13.2209 160.528 14.206 161.294 14.9721L161.703 14.3552C162.071 13.798 161.961 13.0518 161.454 12.614C160.757 12.007 159.891 11.3205 158.846 10.5344C157.343 9.37029 156.119 8.52454 155.183 7.98724V7.97729Z" fill="white"/>
<path d="M154.167 17.5794H160.199V15.7188H153.729H148.444H146.224V17.5794H148.444H152.276V23.6588H148.444H144.193V25.5294H162V23.6588H154.167V17.5794Z" fill="white"/>
<path d="M144.5 13.4777L144.799 13.8658C145.247 14.4628 146.093 14.5822 146.69 14.1245C147.287 13.6668 147.874 13.2091 148.452 12.7215C148.661 12.5524 148.88 12.3733 149.089 12.1942C150.213 11.2489 151.229 10.2838 152.144 9.3087L150.91 7.98535C150.144 8.7913 149.327 9.5873 148.452 10.3634C148.262 10.5325 148.073 10.6917 147.884 10.8609C146.829 11.7564 145.754 12.5922 144.649 13.3583C144.6 13.3981 144.56 13.428 144.51 13.4578L144.5 13.4777Z" fill="white"/>
<path d="M145.597 3.73777V9.2401H147.348V5.53871H159.512V9.2401H159.89C160.626 9.2401 161.234 8.64311 161.234 7.90681V3.73777H154.724C154.575 3.28007 154.346 2.67312 154.037 1.93682C153.928 1.68807 153.828 1.44927 153.729 1.23037C153.52 0.752775 153.331 0.354776 153.171 0.036377L151.449 0.603526C151.559 0.832375 151.698 1.10102 151.838 1.41942C151.987 1.73782 152.136 2.09602 152.285 2.49402L152.743 3.72782H145.597V3.73777Z" fill="white"/>
<path d="M141.694 23.4283V14.5927C142.809 14.0753 143.755 13.6177 144.531 13.2197L144.302 12.2943L144.043 11.3789C143.715 11.5481 143.356 11.7272 142.968 11.9063C142.58 12.0854 142.152 12.2844 141.694 12.4933V7.46857H144.65V5.63777H141.694V0.125488H139.942V5.65767H136.27V7.48847H139.942V13.3192H139.913C138.171 14.0754 136.787 14.6226 135.752 14.9509L135.871 15.4285C136.07 16.2046 136.897 16.6325 137.643 16.3439C137.713 16.3141 137.792 16.2942 137.872 16.2544C138.479 16.0156 139.176 15.727 139.932 15.4086V23.0602C139.932 23.3985 139.913 23.6771 139.883 23.8761C139.843 24.0751 139.773 24.2243 139.684 24.3338C139.584 24.4333 139.445 24.5029 139.256 24.5328C139.066 24.5626 138.818 24.5825 138.509 24.6024C138.161 24.6223 137.802 24.6223 137.444 24.6024C137.076 24.5825 136.767 24.5527 136.498 24.5129L136.837 26.4929C137.165 26.5128 137.554 26.4929 138.031 26.473C138.499 26.4432 138.937 26.4034 139.365 26.3437C140.261 26.2143 140.868 25.9357 141.197 25.5178C141.525 25.09 141.684 24.3935 141.684 23.4283H141.694Z" fill="white"/>
<path d="M130.358 24.6834C130.538 24.3451 130.667 23.8973 130.756 23.36C130.776 23.1909 130.806 22.972 130.846 22.7133C130.886 22.4546 130.926 22.1959 130.956 21.9272C130.995 21.6586 131.025 21.3999 131.055 21.1511C131.085 20.9123 131.095 20.7034 131.095 20.5541L129.373 19.8875C129.373 20.0168 129.363 20.2059 129.343 20.4347C129.323 20.6636 129.303 20.9024 129.273 21.1511C129.244 21.3999 129.204 21.6486 129.174 21.8974C129.134 22.1461 129.104 22.375 129.084 22.564C129.005 22.962 128.935 23.2804 128.855 23.5093C128.776 23.7381 128.626 23.9172 128.378 24.0366C128.139 24.166 127.78 24.2356 127.303 24.2655C126.825 24.2953 126.158 24.3053 125.292 24.3053C124.546 24.3053 123.968 24.2854 123.56 24.2555C123.142 24.2157 122.834 24.1461 122.624 24.0267C122.415 23.9172 122.286 23.7381 122.236 23.5192C122.187 23.3003 122.167 23.0018 122.167 22.6138V20.4646C122.704 20.2755 123.291 20.0367 123.948 19.7681C124.595 19.4895 125.312 19.1611 126.098 18.783C127.034 18.3253 127.88 17.8776 128.636 17.4298C129.383 16.992 130.03 16.5841 130.577 16.2259L130.309 15.7483C129.93 15.0916 129.094 14.8826 128.457 15.2707C127.601 15.7881 126.566 16.3453 125.362 16.9622C124.755 17.2905 124.177 17.5691 123.65 17.8079C123.122 18.0467 122.634 18.2656 122.177 18.4547V13.2708H120.375V23.2207C120.375 23.8376 120.425 24.3152 120.544 24.6734C120.664 25.0316 120.893 25.3003 121.231 25.5092C121.569 25.7082 122.067 25.8475 122.724 25.9072C123.371 25.9769 124.237 26.0167 125.302 26.0366C126.397 26.0565 127.273 26.0266 127.95 25.947C128.616 25.8674 129.144 25.7281 129.522 25.5192C129.91 25.3102 130.189 25.0316 130.358 24.6834Z" fill="white"/>
<path d="M121.579 0.31665H120.375V9.55023C120.375 10.1472 120.425 10.6248 120.544 10.983C120.654 11.3512 120.893 11.6198 121.231 11.8288C121.301 11.8785 121.38 11.9084 121.46 11.9382C121.778 12.0875 122.196 12.177 122.724 12.2268C123.371 12.2964 124.237 12.3362 125.302 12.3561C126.397 12.376 127.273 12.3362 127.93 12.2467C128.587 12.1671 129.104 12.0178 129.482 11.8089C129.851 11.5999 130.119 11.3114 130.279 10.9631C130.438 10.6049 130.577 10.1671 130.667 9.62983C130.727 9.30148 130.776 8.94328 130.826 8.52538C130.876 8.11743 130.906 7.75923 130.926 7.48063L129.204 6.81398C129.184 7.08263 129.164 7.38113 129.134 7.71943C129.104 8.05773 129.064 8.42588 129.005 8.82388C128.945 9.22188 128.875 9.55023 128.786 9.78903C128.696 10.0278 128.537 10.2069 128.298 10.3363C128.059 10.4656 127.711 10.5452 127.233 10.585C126.755 10.6248 126.118 10.6447 125.292 10.6447C124.546 10.6447 123.968 10.6248 123.56 10.6049C123.142 10.5751 122.834 10.5054 122.624 10.386C122.415 10.2766 122.286 10.0975 122.236 9.86863C122.187 9.63978 122.167 9.34128 122.167 8.95323V7.23188C122.684 7.08263 123.252 6.88363 123.879 6.64483C124.496 6.40603 125.173 6.11748 125.899 5.76924C127.741 4.93344 129.194 4.16729 130.259 3.48074L130.01 3.05289C129.642 2.41609 128.835 2.1972 128.198 2.54544C127.989 2.66484 127.77 2.78424 127.542 2.89369C126.845 3.26184 126.058 3.64989 125.173 4.06779C124.605 4.33644 124.068 4.57524 123.57 4.78419C123.072 4.99314 122.605 5.17224 122.167 5.33144V0.31665H121.559H121.579Z" fill="white"/>
<path d="M117.221 5.27178C116.843 4.79418 116.494 4.34643 116.176 3.94843C116.086 3.83898 115.997 3.72953 115.917 3.63003C115.907 3.62008 115.897 3.61013 115.887 3.60018C115.509 3.12258 115.161 2.73453 114.842 2.41613L113.528 3.42108C113.797 3.71958 114.096 4.05788 114.434 4.45588C114.464 4.49568 114.514 4.54543 114.544 4.59518C114.912 5.05288 115.32 5.59018 115.758 6.19712C114.534 6.35632 113.289 6.46577 112.045 6.54537C111.647 6.56527 111.259 6.58517 110.891 6.60507C110.811 6.60507 110.741 6.60507 110.672 6.61502C109.965 6.64487 109.318 6.65482 108.731 6.65482C109.119 6.27672 109.497 5.85883 109.865 5.40113C110.184 5.01308 110.532 4.58523 110.891 4.10763C110.94 4.03798 111 3.96833 111.05 3.89868C111.478 3.34148 111.856 2.81413 112.195 2.30668C112.533 1.79924 112.851 1.30174 113.11 0.834089L111.388 -0.00170898C111.229 0.30674 111.06 0.615189 110.881 0.923639C110.751 1.15249 110.612 1.37139 110.473 1.60024C110.134 2.13754 109.716 2.72458 109.238 3.35143C108.8 3.95838 108.392 4.50563 108.004 5.00313C107.626 5.48073 107.258 5.90858 106.889 6.24687C106.85 6.28667 106.81 6.32647 106.77 6.35632C106.77 6.35632 106.75 6.36627 106.75 6.37622C106.252 6.79412 105.974 7.41102 105.974 8.04782C105.974 8.14732 105.974 8.24682 105.994 8.34632C106.242 8.34632 106.491 8.34632 106.74 8.34632C107.049 8.34632 107.367 8.33637 107.696 8.32642C108.004 8.31647 108.313 8.30652 108.631 8.29657C109.378 8.26672 110.124 8.22692 110.881 8.18712C111.07 8.17717 111.269 8.16722 111.468 8.15727C112.414 8.09757 113.349 8.02792 114.275 7.95827C114.942 7.90852 115.579 7.84882 116.176 7.77917C116.405 7.74932 116.624 7.72942 116.843 7.69957C117.072 8.01797 117.271 8.32642 117.45 8.60502C117.619 8.88362 117.778 9.13237 117.938 9.36122L119.401 8.29657C119.152 7.91847 118.843 7.47072 118.485 6.96327C118.117 6.45582 117.699 5.89863 117.221 5.29168V5.27178Z" fill="white"/>
<path d="M115.726 23.3895C115.726 23.6781 115.716 23.9069 115.696 24.0761C115.676 24.2552 115.626 24.3845 115.556 24.4641C115.477 24.5537 115.357 24.6134 115.198 24.6333C115.039 24.6631 114.82 24.6731 114.551 24.6731C113.944 24.693 113.287 24.6631 112.57 24.5835L112.909 26.6531C113.247 26.673 113.645 26.673 114.083 26.6531C114.521 26.6332 114.939 26.5934 115.347 26.5436C115.765 26.4839 116.124 26.3944 116.402 26.285C116.671 26.1755 116.9 26.0064 117.059 25.7974C117.219 25.5885 117.328 25.3198 117.388 24.9815C117.447 24.6532 117.477 24.2353 117.477 23.7378V11.6585C117.477 10.9321 116.9 10.3451 116.173 10.3252H107.295V26.7825H109.017V20.8821H115.735V23.3995L115.726 23.3895ZM109.007 12.146H115.726V14.7529H109.007V12.146ZM110.878 19.1707H109.007V16.4743H115.726V19.1707H110.878Z" fill="white"/>
<path d="M97.6901 15.5418H87.7864C87.9955 15.1935 88.2045 14.8552 88.4035 14.497C88.6026 14.1488 88.7818 13.8005 88.9311 13.4523H100.467V11.8503H83.3969V13.4523H87.239C86.7413 14.3677 86.1441 15.293 85.4474 16.1985C84.88 16.9447 84.3027 17.6213 83.7453 18.1984C83.6159 18.3278 83.4865 18.4571 83.3671 18.5765C83.3671 18.4571 83.3671 18.3477 83.387 18.2283C83.3969 18.1188 83.4069 17.9895 83.4069 17.8502C83.4268 16.6263 83.2377 15.4124 82.8495 14.2085C82.4613 13.0045 81.884 11.8802 81.1375 10.8554C81.5954 9.71111 82.0333 8.50716 82.4613 7.27336C82.8794 6.02961 83.2377 4.85552 83.5263 3.74112V3.36302C83.5263 2.62672 82.9291 2.01978 82.1826 2.01978H75.9219V27.2529H77.6438V3.84062H81.6849C81.5755 4.33812 81.4262 4.88537 81.2569 5.48237C81.0877 6.08931 80.8986 6.70621 80.6995 7.36291C80.5005 8.00966 80.2716 8.66636 80.0327 9.31311C79.7938 9.9698 79.5549 10.5768 79.326 11.1439C80.0725 12.0991 80.6498 13.1339 81.0778 14.2483C81.4958 15.3527 81.6849 16.4572 81.6451 17.5417C81.6252 18.0193 81.5954 18.4074 81.5555 18.7059C81.5157 18.9944 81.4461 19.2332 81.3465 19.4024C81.237 19.5715 81.0778 19.6909 80.8688 19.7606C80.6597 19.8302 80.3711 19.87 80.0128 19.8899C79.6246 19.9098 79.2762 19.9098 78.9676 19.8899C78.6491 19.87 78.3605 19.8501 78.0917 19.8103L78.4401 21.7008C78.7089 21.7207 79.0075 21.7207 79.3558 21.7108C79.7042 21.7008 80.0227 21.6809 80.3313 21.6411C81.2868 21.5615 81.9836 21.3526 82.4215 20.9844C82.8595 20.6163 83.1481 20.0292 83.2875 19.2034C83.4268 19.3327 83.5861 19.4123 83.7453 19.4621C84.1733 19.6014 84.661 19.4919 84.9895 19.1536C85.1388 18.9944 85.2981 18.8352 85.4474 18.6661C85.8754 18.1885 86.2834 17.691 86.6617 17.1736H89.3292C89.2396 17.3726 89.1401 17.5716 89.0505 17.7706C89.0406 17.7805 89.0306 17.8004 89.0306 17.8104C88.3438 19.1835 87.4878 20.4173 86.4626 21.5018C85.6862 22.3177 84.7805 23.0739 83.7453 23.7804C83.1879 24.1684 82.5907 24.5266 81.9636 24.8848L82.9092 26.238C84.9397 25.0341 86.602 23.7008 87.8959 22.2381C88.304 21.7804 88.6822 21.3028 89.0306 20.8053C89.0406 20.7954 89.0505 20.7854 89.0505 20.7755C89.8269 19.681 90.4739 18.487 90.9915 17.1835H93.4798C93.231 18.2084 92.9423 19.1437 92.6238 19.9596C92.2954 20.7854 91.8972 21.5416 91.4194 22.2182C90.9417 22.9048 90.3743 23.5615 89.7075 24.1883C89.6278 24.2679 89.5382 24.3475 89.4586 24.4271C88.8515 24.9744 88.1547 25.5216 87.3783 26.0689L88.4035 27.2728C89.3591 26.5664 90.1952 25.8599 90.9019 25.1535C91.6086 24.447 92.2157 23.6908 92.7333 22.9048C93.2509 22.1187 93.6888 21.2531 94.0372 20.3078C94.1367 20.0392 94.2363 19.7506 94.3358 19.4621C94.5647 18.7556 94.7738 17.9994 94.943 17.1935H97.3517C97.2621 18.3576 97.1726 19.3825 97.0929 20.2581C97.0133 21.1337 96.9337 21.9496 96.8341 22.6958C96.7844 23.0938 96.7147 23.4122 96.645 23.6411C96.5753 23.8699 96.4858 24.049 96.3564 24.1585C96.227 24.2679 96.0578 24.3475 95.8288 24.3674C95.5999 24.3973 95.2814 24.4172 94.8833 24.4371C94.5548 24.4371 94.2064 24.4371 93.8182 24.4271C93.4301 24.4271 93.0618 24.3973 92.6935 24.3575L93.0717 26.3077C93.45 26.3276 93.878 26.3276 94.3458 26.2878C94.8136 26.2579 95.2217 26.2181 95.5601 26.1584C96.0379 26.0788 96.446 25.9992 96.7744 25.8997C97.1128 25.8102 97.3915 25.6609 97.6105 25.4619C97.8295 25.2629 97.9987 24.9843 98.1281 24.656C98.2575 24.3177 98.3471 23.8898 98.4267 23.3525C98.566 22.4371 98.6855 21.2829 98.8049 19.8999C98.8846 18.9447 98.9443 17.9696 99.004 16.9646C99.0438 16.1985 98.4367 15.5617 97.6603 15.5617L97.6901 15.5418Z" fill="white"/>
<path d="M89.0401 9.91945H97.7693V2.85496C97.7693 2.11867 97.1721 1.51172 96.4355 1.51172H85.9844V8.5762C85.9844 9.3125 86.5816 9.91945 87.3281 9.91945H89.05H89.0401ZM87.7063 2.92461H96.1071V5.01411H87.7063V2.92461ZM87.7063 6.427H96.1071V8.48665H87.7063V6.427Z" fill="white"/>
<path d="M62.4183 20.5539C63.3738 21.718 64.4687 22.8424 65.7029 23.917C66.9372 25.0015 68.3506 26.0861 69.963 27.1706L71.1674 25.3597C70.5503 25.0115 69.963 24.6632 69.3957 24.305C68.4601 23.708 67.6041 23.0812 66.8177 22.4543C65.5636 21.4295 64.4588 20.3449 63.5032 19.2007L64.0208 18.4246C65.902 15.4794 67.1362 11.6288 67.7534 6.86272H70.7892V4.97223H60.2086C60.4774 4.24588 60.7162 3.49963 60.9253 2.75338C61.1343 2.00713 61.3433 1.24099 61.5523 0.474838L59.7707 0.106689C59.3924 1.71859 58.845 3.46978 58.1084 5.38017C57.979 5.70852 57.8496 6.04682 57.7103 6.38512C57.3619 7.24082 57.0135 8.03682 56.6851 8.74327C56.5756 8.98207 56.4661 9.21091 56.3666 9.42981C55.9386 10.3054 55.4708 11.1711 54.9532 12.0168L56.5258 12.9621C56.7348 12.6337 56.9339 12.2954 57.1131 11.9372C57.3022 11.589 57.4814 11.2308 57.6705 10.8626C57.7999 11.39 57.9392 11.9074 58.0985 12.4148C58.3871 13.3899 58.7255 14.3153 59.1038 15.1908C59.6711 16.5241 60.3977 17.8077 61.2537 19.0315C60.3977 20.0464 59.3427 21.0514 58.0985 22.0364C56.6453 23.2006 54.9134 24.3448 52.9326 25.4791L54.1071 27.1706C55.9087 26.0761 57.4913 24.9916 58.8549 23.907C60.2186 22.8125 61.403 21.6981 62.3984 20.5539H62.4183ZM60.1389 13.3203C59.5716 11.8178 59.1436 10.186 58.835 8.44477C58.9445 8.17612 59.064 7.91742 59.1735 7.65872C59.2829 7.40002 59.3924 7.14132 59.492 6.87267H65.9816C65.7129 8.90246 65.3247 10.7432 64.8171 12.4049C64.3094 14.0665 63.6326 15.5888 62.7965 16.9619L62.3685 17.6485C61.4528 16.2754 60.7063 14.8326 60.1389 13.3203Z" fill="white"/>
<path d="M55.5584 13.7593C55.0607 13.9682 54.5132 14.1871 53.926 14.406C53.5677 14.5354 53.1994 14.6647 52.8212 14.804C52.5723 14.8836 52.3135 14.9732 52.0547 15.0528V8.57532H55.9565V6.65498H52.0547V0.227295H50.2731V6.65498H47.725C47.8145 5.99828 47.9041 5.36148 47.9838 4.72468C48.0634 4.07793 48.1331 3.45109 48.2127 2.84414L46.3812 2.64514C46.3016 3.39139 46.212 4.21723 46.1125 5.12268C46.013 6.02813 45.8935 6.95348 45.7542 7.89872C45.6148 8.84397 45.4755 9.76932 45.3063 10.6847C45.147 11.5902 44.9778 12.416 44.8086 13.1623L46.5305 13.5304C46.6799 12.824 46.8391 12.0479 46.9884 11.2121C47.1377 10.3663 47.297 9.49072 47.4463 8.57532H50.283V15.6597C49.2279 15.9881 48.2127 16.2866 47.2173 16.5751C46.222 16.8636 45.3361 17.0825 44.5498 17.2318L44.7489 17.9581C44.9479 18.6646 45.6745 19.0825 46.3812 18.8934C46.7197 18.8039 47.0879 18.7143 47.4662 18.6049C48.3719 18.3462 49.3175 18.0576 50.293 17.7293V26.8733H52.0746V17.1223C52.3334 17.0328 52.5823 16.9432 52.8411 16.8537C53.9857 16.4458 55.0408 16.0378 55.9764 15.6299L55.5783 13.7692L55.5584 13.7593Z" fill="white"/>
<path d="M161.001 36.3657V41.0957C161.001 42.0843 160.526 42.569 159.586 42.569H157.627C156.687 42.569 156.212 42.0843 156.212 41.0957V38.8373C156.212 37.8681 156.687 37.3737 157.627 37.3737H160.458V36.3754H157.433C155.95 36.3754 155.213 37.1411 155.213 38.6822V41.2702C155.213 42.8113 155.95 43.577 157.433 43.577H159.78C161.263 43.577 162 42.8113 162 41.2702V33.4192H161.001V36.3851V36.3657Z" fill="white"/>
<path d="M149.104 38.6813V43.5567H150.102V38.8461C150.102 37.8575 150.568 37.3632 151.508 37.3632H153.253V36.3745H151.334C149.85 36.3745 149.113 37.1402 149.113 38.6813H149.104Z" fill="white"/>
<path d="M144.828 36.3647H142.337C140.863 36.3647 140.116 37.1305 140.116 38.6716V41.2595C140.116 42.8006 140.853 43.5663 142.337 43.5663H146.506V42.5971H142.453C141.551 42.5971 141.086 42.1124 141.086 41.1723V38.7103C141.086 37.7411 141.551 37.2468 142.492 37.2468H144.644C145.391 37.2468 145.759 37.6151 145.759 38.3517V38.6813C145.759 39.3113 145.391 39.6311 144.654 39.6311H141.629V40.4453H144.925C146.118 40.4453 146.719 39.9122 146.719 38.8654V38.2839C146.719 37.0142 146.089 36.3841 144.809 36.3841L144.828 36.3647Z" fill="white"/>
<path d="M135.51 36.3653H131.942V33.3994H130.943V43.5572H131.942V37.3637H135.316C136.266 37.3637 136.732 37.858 136.732 38.8272V43.5572H137.731V38.6625C137.731 37.1214 136.994 36.3556 135.51 36.3556V36.3653Z" fill="white"/>
<path d="M126.289 36.3644H123.952C122.468 36.3644 121.731 37.1301 121.731 38.6712V45.9988H122.73V38.8263C122.73 37.857 123.196 37.3627 124.136 37.3627H126.114C127.055 37.3627 127.53 37.857 127.53 38.8263V41.0846C127.53 42.0733 127.055 42.5579 126.114 42.5579H123.273V43.5465H126.298C127.782 43.5465 128.519 42.7808 128.519 41.2397V38.6518C128.519 37.1107 127.782 36.345 126.298 36.345L126.289 36.3644Z" fill="white"/>
<path d="M117.494 36.3647H115.003C113.519 36.3647 112.782 37.1305 112.782 38.6716V41.2595C112.782 42.8006 113.519 43.5663 115.003 43.5663H119.172V42.5971H115.129C114.217 42.5971 113.771 42.1124 113.771 41.1723V38.7103C113.771 37.7411 114.237 37.2468 115.177 37.2468H117.33C118.076 37.2468 118.445 37.6151 118.445 38.3517V38.6813C118.445 39.3113 118.076 39.6311 117.339 39.6311H114.314V40.4453H117.611C118.813 40.4453 119.414 39.9122 119.414 38.8654V38.2839C119.414 37.0142 118.774 36.3841 117.504 36.3841L117.494 36.3647Z" fill="white"/>
<path d="M108.179 36.3653H104.611V33.3994H103.612V43.5572H104.611V37.3637H107.995C108.945 37.3637 109.41 37.858 109.41 38.8272V43.5572H110.399V38.6625C110.399 37.1214 109.663 36.3556 108.179 36.3556V36.3653Z" fill="white"/>
<path d="M99.3924 37.9181H96.4642C95.7273 37.9181 95.3589 37.5401 95.3589 36.7744V35.8148C95.3589 34.9619 95.7661 34.5354 96.5806 34.5354H100.178C100.634 34.5354 101.002 34.1671 101.002 33.7018V33.4983H96.4836C95.0583 33.4983 94.3408 34.2349 94.3408 35.7082V36.8616C94.3408 38.1992 94.9905 38.8583 96.28 38.8583H99.2179C99.9548 38.8583 100.323 39.2363 100.323 40.002V41.2426C100.323 42.0956 99.9063 42.5221 99.0822 42.5221H95.2231C94.7674 42.5221 94.399 42.8904 94.399 43.3459V43.5495H99.1791C100.604 43.5495 101.322 42.8128 101.322 41.3396V39.9148C101.322 38.5772 100.672 37.9084 99.3827 37.9084L99.3924 37.9181Z" fill="white"/>
<path d="M85.8783 36.3664H81.3115V43.5583H82.3102V37.3647H85.6844C86.6346 37.3647 87.1 37.859 87.1 38.8283V43.5583H88.0987V38.6635C88.0987 37.1224 87.3618 36.3567 85.8783 36.3567V36.3664Z" fill="white"/>
<path d="M77.0365 36.3647H74.5446C73.0611 36.3647 72.3242 37.1305 72.3242 38.6716V41.2595C72.3242 42.8006 73.0611 43.5663 74.5446 43.5663H78.7139V42.5971H74.6706C73.7592 42.5971 73.3132 42.1124 73.3132 41.1723V38.7103C73.3132 37.7411 73.7786 37.2468 74.7191 37.2468H76.8716C77.6182 37.2468 77.9867 37.6151 77.9867 38.3517V38.6813C77.9867 39.3113 77.6182 39.6311 76.8813 39.6311H73.8659V40.4453H77.1625C78.3648 40.4453 78.966 39.9122 78.966 38.8654V38.2839C78.966 37.0142 78.326 36.3841 77.0559 36.3841L77.0365 36.3647Z" fill="white"/>
<path d="M68.1322 36.3647H65.6403C64.1568 36.3647 63.4199 37.1305 63.4199 38.6716V41.2595C63.4199 42.8006 64.1665 43.5663 65.6403 43.5663H69.8096V42.5971H65.7663C64.8549 42.5971 64.4089 42.1124 64.4089 41.1723V38.7103C64.4089 37.7411 64.8743 37.2468 65.8148 37.2468H67.9673C68.7139 37.2468 69.0824 37.6151 69.0824 38.3517V38.6813C69.0824 39.3113 68.7139 39.6311 67.977 39.6311H64.9519V40.4453H68.2485C69.4411 40.4453 70.0423 39.9122 70.0423 38.8654V38.2839C70.0423 37.0142 69.412 36.3841 68.1322 36.3841V36.3647Z" fill="white"/>
<path d="M57.3145 38.6813V43.5567H58.3131V38.8461C58.3131 37.8575 58.7785 37.3632 59.7191 37.3632H61.4643V36.3745H59.5445C58.061 36.3745 57.3242 37.1402 57.3242 38.6813H57.3145Z" fill="white"/>
<path d="M51.0881 38.6741V38.771H53.9097V41.2814C53.9097 41.9696 53.357 42.5318 52.6686 42.5318H49.9925C49.0714 42.5318 48.6157 42.0568 48.6157 41.1069V35.9505C48.6157 35.0103 49.0714 34.5354 49.9925 34.5354H54.6466V33.4983H49.8083C48.3248 33.4983 47.5879 34.264 47.5879 35.7857V41.2717C47.5879 42.7935 48.3248 43.5592 49.8083 43.5592H52.8722C54.2102 43.5592 54.8696 42.8807 54.8696 41.5237V37.8406H51.9026C51.4469 37.8406 51.0784 38.2089 51.0784 38.6644L51.0881 38.6741Z" fill="white"/>
</svg>
